<?xml version="1.0" encoding="UTF-8"?>
<svg id="Layer_1" xmlns="http://www.w3.org/2000/svg" version="1.1" viewBox="0 0 1920 1080">
  <!-- Generator: Adobe Illustrator 29.1.0, SVG Export Plug-In . SVG Version: 2.1.0 Build 142)  -->
  <defs>
    <style>
      .st0 {
        fill: #ea7100;
      }
    </style>
  </defs>
  <path class="st0" d="M654.26,609.18h36.71v39.49h-30.54c-32.09,0-51.83-11.11-51.83-51.83v-88.23h-21.83c-3.83,0-5.82-4.55-3.23-7.37l63.09-71.57c2.71-2.94,7.62-1.02,7.62,2.98v36.47h36.4v39.49h-36.4v100.58ZM523.45,466.34c-21.9,0-38.26,12.65-46.28,32.39h-1.54v-29.62h-43.5v179.55h45.66v-139.14h30.54c13.27,0,18.2,2.78,18.2,16.97v122.17h45.66v-131.12c0-36.1-17.28-51.21-48.74-51.21ZM353.16,648.67h45.66v-179.55h-45.66v179.55ZM951.05,500.89h-1.85v-31.78h-45.35v179.55h48.44v-136.67h42.57v-45.66h-5.86c-22.52,0-32.39,9.87-37.95,34.55ZM1566.84,558.89c0,55.22-42.57,92.55-94.1,92.55-54.92,0-97.18-37.33-97.18-92.55s42.27-92.55,97.18-92.55c51.52,0,94.1,35.48,94.1,92.55ZM1521.18,558.89c0-32.7-21.29-53.37-48.44-53.37-30.23,0-51.83,20.67-51.83,53.37,0,30.85,21.6,53.06,51.83,53.06,27.15,0,48.44-22.21,48.44-53.06ZM882.56,554.27v13.57h-136.96c2.45,26.68,19.22,44.43,45.03,44.43,23.14,0,39.8-12.34,43.19-27.46h48.74c-10.18,37.95-45.04,66.95-92.55,66.95-55.53,0-93.17-39.49-93.17-91.32s36.4-94.1,94.4-94.1c54.61,0,91.32,37.64,91.32,87.93ZM746.94,534.83h88.43c-6.92-18.04-21.52-30.85-44.12-30.85-19.81,0-37.17,10.39-44.3,30.85ZM1268.82,558.89c0,58.62,42.88,92.55,91.32,92.55h5.86v-39.49h-2.78c-27.46,0-48.74-18.82-48.74-53.06s21.29-53.37,48.74-53.37h2.78v-39.18h-5.86c-48.44,0-91.32,35.48-91.32,92.55ZM1195.7,581.72l33.32-79.29h-42.58l-15.12,39.8-45.66-75.89h60.78v-33.63h-103.55c-14.92,0-23.08,15.18-15.58,27.13l27.81,42.59c-42.58,3.09-69.72,36.71-69.72,73.12,0,45.66,36.41,76.2,79.29,76.2,24.06,0,51.52-12.34,63.55-33.63l18.2,30.54h51.83l-42.57-66.95ZM1112.1,615.35c-23.85,0-41.03-16.82-41.03-41.03s17.19-41.03,41.03-41.03,41.03,16.82,41.03,41.03-17.19,41.03-41.03,41.03Z"/>
</svg>